<?xml version="1.0" encoding="UTF-8" standalone="no"?>
<!-- Created with Inkscape (http://www.inkscape.org/) -->

<svg
   width="34"
   height="34"
   viewBox="0 0 8.9958333 8.9958334"
   version="1.1"
   id="svg1"
   xml:space="preserve"
   sodipodi:docname="logo.svg"
   inkscape:version="1.4.3 (0d15f75042, 2025-12-25)"
   inkscape:export-filename="/home/mslealt1994/Descargas/favicon.ico"
   inkscape:export-xdpi="96"
   inkscape:export-ydpi="96"
   xmlns:inkscape="http://www.inkscape.org/namespaces/inkscape"
   xmlns:sodipodi="http://sodipodi.sourceforge.net/DTD/sodipodi-0.dtd"
   xmlns="http://www.w3.org/2000/svg"
   xmlns:svg="http://www.w3.org/2000/svg"><sodipodi:namedview
     id="namedview1"
     pagecolor="#ffffff"
     bordercolor="#000000"
     borderopacity="0.25"
     inkscape:showpageshadow="2"
     inkscape:pageopacity="0.0"
     inkscape:pagecheckerboard="0"
     inkscape:deskcolor="#d1d1d1"
     inkscape:document-units="mm"
     inkscape:zoom="0.67218934"
     inkscape:cx="769.12853"
     inkscape:cy="395.72183"
     inkscape:window-width="1920"
     inkscape:window-height="1003"
     inkscape:window-x="0"
     inkscape:window-y="0"
     inkscape:window-maximized="1"
     inkscape:current-layer="svg1"><inkscape:page
       x="0"
       y="0"
       width="8.9958334"
       height="8.9958334"
       id="page2"
       margin="0"
       bleed="0" /></sodipodi:namedview><defs
     id="defs1" /><path
     style="fill:#00b8d4;fill-opacity:1;stroke:#ffffff;stroke-width:0;stroke-linecap:round;stroke-linejoin:round;stroke-dasharray:none"
     d="M 5.7215973,1.3277226 C 5.2878293,1.3117454 4.8892019,1.6578049 4.8885277,2.1317378 4.8879828,2.5022619 4.8667321,2.4776865 6.5054793,3.9986269 6.7752914,4.2490355 7.0020758,4.4720703 7.0094456,4.4941706 7.016834,4.5162432 6.6645221,4.8678347 6.2265519,5.2754204 5.0496115,6.3707107 5.0233367,6.3966991 4.9593355,6.5315728 4.8768634,6.7053184 4.8831434,7.0341816 4.9721727,7.2087583 5.0635107,7.387768 5.3061892,7.5965341 5.4791313,7.6448444 5.6651229,7.6968397 5.9530641,7.660637 6.1119221,7.56542 6.3434627,7.4265659 8.8281999,5.0404997 8.9031636,4.8850125 8.9403823,4.8078046 8.9773238,4.6458897 8.9851739,4.5253031 9.0067848,4.1958396 8.8955906,4.0213552 8.3159864,3.4755526 6.5585459,1.8204772 6.1643976,1.4636492 6.0229945,1.3994632 5.9236124,1.3543021 5.8216906,1.3313983 5.7215881,1.3277042 Z"
     id="path4" /><path
     style="fill:#00b8d4;fill-opacity:1;stroke:#ffffff;stroke-width:0;stroke-linecap:round;stroke-linejoin:round;stroke-dasharray:none"
     d="M 3.7631933,1.3093353e-5 C 3.493287,7.7679961e-4 3.2778587,0.10651542 3.1081414,0.3216381 3.0399163,0.40809039 2.4162988,1.9112915 1.497491,4.203571 0.16696042,7.5230445 -0.00169796,7.9685132 1.2760529e-5,8.1586064 0.00204932,8.3836778 0.03656915,8.4772887 0.1970609,8.6923094 0.42257008,8.9944853 0.91770049,9.096721 1.2772259,8.915334 1.4356302,8.8353987 1.5745649,8.7073393 1.6407941,8.5800945 1.6700188,8.5239872 2.3593869,6.8196038 3.1727412,4.7926789 4.5464267,1.3693914 4.6515951,1.0900149 4.6519719,0.86344669 4.6524301,0.5732052 4.5875146,0.43121563 4.3605594,0.22618415 4.1521574,0.03790344 4.0499013,-8.2190666e-4 3.7631933,1.3093353e-5 Z"
     id="path3" /></svg>
